<svg width="23" height="23" viewBox="0 0 23 23" fill="none" xmlns="http://www.w3.org/2000/svg">
<path d="M21.0142 11.4927C21.0142 17.0155 16.537 21.4927 11.0142 21.4927M21.0142 11.4927C21.0142 5.96983 16.537 1.49268 11.0142 1.49268M21.0142 11.4927H1.01416M11.0142 21.4927C5.49131 21.4927 1.01416 17.0155 1.01416 11.4927M11.0142 21.4927C8.44639 18.7965 7.01416 15.2159 7.01416 11.4927C7.01416 7.76942 8.44639 4.18883 11.0142 1.49268M11.0142 21.4927C13.5819 18.7965 15.0142 15.2159 15.0142 11.4927C15.0142 7.76942 13.5819 4.18883 11.0142 1.49268M1.01416 11.4927C1.01416 5.96983 5.49131 1.49268 11.0142 1.49268" stroke="#092543" stroke-width="2" stroke-linecap="round" stroke-linejoin="round"/>
</svg>
