<svg width="35" height="35" viewBox="0 0 35 35" fill="none" xmlns="http://www.w3.org/2000/svg">
<mask id="mask0_1235_12536" style="mask-type:luminance" maskUnits="userSpaceOnUse" x="0" y="0" width="35" height="35">
<path d="M0 0H34.984V35H0V0Z" fill="white"/>
</mask>
<g mask="url(#mask0_1235_12536)">
<path d="M34.9847 29.6785C34.9847 32.6158 32.6048 34.9968 29.6688 34.9968H5.31782C2.38189 34.9968 0.00195312 32.6158 0.00195312 29.6785V5.31634C0.00195312 2.37908 2.38189 -0.00195312 5.31782 -0.00195312H29.6688C32.6048 -0.00195312 34.9847 2.37908 34.9847 5.31634V29.6785Z" fill="#2197BD"/>
</g>
<path d="M13.8345 12.4851C13.8345 12.5706 13.8302 12.6562 13.8221 12.7417C13.814 12.8266 13.8008 12.9115 13.7846 12.9952C13.7678 13.0794 13.7472 13.1625 13.7222 13.2442C13.6973 13.326 13.6686 13.4066 13.6355 13.4858C13.603 13.5651 13.5662 13.6419 13.5263 13.7175C13.4857 13.793 13.442 13.8667 13.394 13.9378C13.3466 14.009 13.296 14.0777 13.2417 14.1438C13.1875 14.21 13.13 14.2737 13.0695 14.3343C13.009 14.3942 12.9453 14.4516 12.8792 14.5066C12.8131 14.5609 12.7444 14.6114 12.6733 14.6589C12.6021 14.707 12.5285 14.7507 12.453 14.7912C12.3775 14.8312 12.3007 14.868 12.2215 14.9005C12.1423 14.9336 12.0618 14.9623 11.98 14.9873C11.8983 15.0122 11.8153 15.0328 11.731 15.0497C11.6474 15.0659 11.5626 15.079 11.4777 15.0871C11.3922 15.0953 11.3067 15.0996 11.2212 15.0996C11.1357 15.0996 11.0503 15.0953 10.9654 15.0871C10.8799 15.079 10.7957 15.0659 10.7114 15.0497C10.6278 15.0328 10.5448 15.0122 10.4624 14.9873C10.3807 14.9623 10.3002 14.9336 10.2216 14.9005C10.1423 14.868 10.065 14.8312 9.98945 14.7912C9.91394 14.7507 9.84031 14.707 9.76918 14.6589C9.69804 14.6114 9.6294 14.5609 9.56326 14.5066C9.49711 14.4516 9.43409 14.3942 9.37356 14.3343C9.31303 14.2737 9.25562 14.21 9.20134 14.1438C9.14705 14.0777 9.09588 14.009 9.04845 13.9378C9.00103 13.8667 8.95673 13.793 8.91679 13.7175C8.87623 13.6419 8.83941 13.5651 8.80697 13.4858C8.77389 13.4066 8.74519 13.326 8.72085 13.2442C8.69589 13.1625 8.67468 13.0794 8.65845 12.9952C8.64161 12.9115 8.62913 12.8266 8.62039 12.7417C8.61228 12.6562 8.60791 12.5706 8.60791 12.4851C8.60791 12.3996 8.61228 12.3141 8.62039 12.2292C8.62913 12.1436 8.64161 12.0594 8.65845 11.9751C8.67468 11.8914 8.69589 11.8084 8.72085 11.726C8.74519 11.6442 8.77389 11.5637 8.80697 11.4844C8.83941 11.4057 8.87623 11.3283 8.91679 11.2528C8.95673 11.1772 9.00103 11.1036 9.04845 11.0324C9.09588 10.9612 9.14705 10.8926 9.20134 10.8264C9.25562 10.7602 9.31303 10.6972 9.37356 10.6366C9.43409 10.576 9.49711 10.5186 9.56326 10.4643C9.6294 10.41 9.69804 10.3588 9.76918 10.3114C9.84031 10.2639 9.91394 10.2196 9.98945 10.1796C10.065 10.139 10.1423 10.1022 10.2216 10.0698C10.3002 10.0367 10.3807 10.0079 10.4624 9.98298C10.5448 9.95863 10.6278 9.9374 10.7114 9.92117C10.7957 9.90432 10.8799 9.89183 10.9654 9.88309C11.0503 9.87498 11.1357 9.87061 11.2212 9.87061C11.3067 9.87061 11.3922 9.87498 11.4777 9.88309C11.5626 9.89183 11.6474 9.90432 11.731 9.92117C11.8153 9.9374 11.8983 9.95863 11.98 9.98298C12.0618 10.0079 12.1423 10.0367 12.2215 10.0698C12.3007 10.1022 12.3775 10.139 12.453 10.1796C12.5285 10.2196 12.6021 10.2639 12.6733 10.3114C12.7444 10.3588 12.8131 10.41 12.8792 10.4643C12.9453 10.5186 13.009 10.576 13.0695 10.6366C13.13 10.6972 13.1875 10.7602 13.2417 10.8264C13.296 10.8926 13.3466 10.9612 13.394 11.0324C13.442 11.1036 13.4857 11.1772 13.5263 11.2528C13.5662 11.3283 13.603 11.4057 13.6355 11.4844C13.6686 11.5637 13.6973 11.6442 13.7222 11.726C13.7472 11.8084 13.7678 11.8914 13.7846 11.9751C13.8008 12.0594 13.814 12.1436 13.8221 12.2292C13.8302 12.3141 13.8345 12.3996 13.8345 12.4851Z" fill="white"/>
<path d="M8.96826 17.0269H13.458V31.476H8.96826V17.0269Z" fill="white"/>
<path d="M16.2798 17.0269H20.5529V31.476H16.2798V17.0269Z" fill="white"/>
<path d="M16.4653 24.7212H20.7385V31.4772H16.4653V24.7212Z" fill="white"/>
<path d="M20.7387 24.7218C20.7387 24.7218 20.6719 22.8477 21.1655 21.8732C21.1655 21.8732 21.6597 20.6733 23.2128 20.6658C23.2128 20.6658 25.0343 20.348 25.5566 22.156C25.5566 22.156 25.7538 23.1586 25.7538 23.5825C25.7538 24.0064 25.7681 31.4784 25.7681 31.4784H30.2434V23.201C30.2434 23.201 30.5685 18.5258 27.7637 17.2453C27.7637 17.2453 23.1517 15.1733 20.6482 18.9777C20.6482 18.9777 20.1022 19.3542 20.0267 18.2998C19.9512 17.2453 19.3116 19.9192 19.2928 19.976C19.2735 20.0322 20.0267 25.3055 20.0267 25.3055L20.7387 24.7218Z" fill="white"/>
</svg>
