<svg width="34" height="34" viewBox="0 0 34 34" fill="none" xmlns="http://www.w3.org/2000/svg">
<path fill-rule="evenodd" clip-rule="evenodd" d="M15.5835 5.66634C10.1067 5.66634 5.66683 10.1062 5.66683 15.583C5.66683 21.0598 10.1067 25.4997 15.5835 25.4997C21.0603 25.4997 25.5002 21.0598 25.5002 15.583C25.5002 10.1062 21.0603 5.66634 15.5835 5.66634ZM2.8335 15.583C2.8335 8.54138 8.54187 2.83301 15.5835 2.83301C22.6251 2.83301 28.3335 8.54138 28.3335 15.583C28.3335 18.5934 27.2902 21.3602 25.5454 23.5414L30.7519 28.7479C31.3051 29.3012 31.3051 30.1982 30.7519 30.7514C30.1987 31.3047 29.3017 31.3047 28.7484 30.7514L23.5419 25.5449C21.3607 27.2897 18.5939 28.333 15.5835 28.333C8.54187 28.333 2.8335 22.6246 2.8335 15.583Z" fill="#092543"/>
</svg>
