<svg width="36" height="35" viewBox="0 0 36 35" fill="none" xmlns="http://www.w3.org/2000/svg">
<mask id="mask0_1235_12575" style="mask-type:luminance" maskUnits="userSpaceOnUse" x="0" y="0" width="36" height="35">
<path d="M0.877441 0H35.8614V35H0.877441V0Z" fill="white"/>
</mask>
<g mask="url(#mask0_1235_12575)">
<path d="M31.4884 35H5.25044C2.83618 35 0.877441 33.0404 0.877441 30.625V4.375C0.877441 1.96026 2.83618 0 5.25044 0H31.4884C33.9021 0 35.8614 1.96026 35.8614 4.375V30.625C35.8614 33.0404 33.9021 35 31.4884 35Z" fill="#1D9BF0"/>
</g>
<path d="M14.3115 26.3905C22.559 26.3905 27.0717 19.5483 27.0717 13.6245C27.0717 13.4322 27.0717 13.2393 27.063 13.047C27.9379 12.4171 28.6985 11.6205 29.3026 10.7197C28.4976 11.078 27.6315 11.3146 26.7223 11.4282C27.649 10.877 28.3578 9.99301 28.6985 8.94358C27.833 9.45987 26.8708 9.82695 25.8475 10.0286C25.0257 9.15334 23.8625 8.61084 22.5764 8.61084C20.1017 8.61084 18.0899 10.6235 18.0899 13.0995C18.0899 13.4497 18.1336 13.7905 18.2034 14.1233C14.4775 13.9398 11.1716 12.1456 8.95887 9.43303C8.57448 10.0985 8.35546 10.8683 8.35546 11.6911C8.35546 13.248 9.15168 14.6221 10.3498 15.4268C9.61469 15.4006 8.92392 15.1996 8.32051 14.8668C8.32051 14.8843 8.32051 14.9018 8.32051 14.9286C8.32051 17.098 9.86866 18.9184 11.9154 19.3298C11.5391 19.4347 11.1454 19.4872 10.7348 19.4872C10.4459 19.4872 10.1663 19.4609 9.89487 19.4085C10.4633 21.1933 12.125 22.4881 14.0844 22.5231C12.545 23.7311 10.6118 24.4484 8.51271 24.4484C8.15453 24.4484 7.79573 24.4309 7.44629 24.3872C9.4225 25.647 11.7837 26.3905 14.3115 26.3905Z" fill="white"/>
</svg>
