<svg width="36" height="35" viewBox="0 0 36 35" fill="none" xmlns="http://www.w3.org/2000/svg">
<mask id="mask0_1235_12547" style="mask-type:luminance" maskUnits="userSpaceOnUse" x="0" y="0" width="36" height="35">
<path d="M0.983887 0H35.9679V35H0.983887V0Z" fill="white"/>
</mask>
<g mask="url(#mask0_1235_12547)">
<path d="M35.9679 29.6811C35.9679 32.6146 33.5829 35 30.6508 35H6.30038C3.36819 35 0.983887 32.6146 0.983887 29.6811V5.31892C0.983887 2.38602 3.36819 0 6.30038 0H30.6508C33.5829 0 35.9679 2.38602 35.9679 5.31892V29.6811Z" fill="#E52D27"/>
</g>
<path d="M30.8757 17.7773C30.8757 19.7125 30.8757 21.7633 30.4439 23.6381C30.14 24.9584 29.063 25.9261 27.7613 26.0721C24.6894 26.413 21.575 26.4192 18.4787 26.413C15.3762 26.413 12.2736 26.413 9.19544 26.0721C7.90002 25.9261 6.81738 24.9584 6.51286 23.6381C6.08105 21.7633 6.08105 19.7125 6.08105 17.7773C6.08105 15.842 6.08729 13.7906 6.51286 11.9164C6.81738 10.5955 7.89378 9.62782 9.19544 9.48173C12.2736 9.13525 15.3818 9.13525 18.4787 9.13525C21.575 9.13525 24.6832 9.13525 27.7613 9.48173C29.0568 9.62782 30.14 10.5955 30.4439 11.9164C30.8757 13.7906 30.8757 15.842 30.8757 17.7773Z" fill="white"/>
<path d="M15.8687 13.1641V22.4328L23.0653 17.7956L15.8687 13.1641Z" fill="#E52D27"/>
</svg>
