<svg width="188" height="64" viewBox="0 0 188 64" fill="none" xmlns="http://www.w3.org/2000/svg">
<path d="M95.7213 14.6541L88.5232 34.2803H83.7431L76.545 14.6541H80.7627L86.1613 30.2594L91.5317 14.6541H95.7213ZM102.018 17.8314V22.752H108.626V25.8731H102.018V31.0749H109.469V34.2803H98.0814V14.626H109.469V17.8314H102.018ZM112.09 24.4391C112.09 22.5083 112.522 20.7838 113.384 19.2654C114.265 17.7283 115.455 16.538 116.955 15.6945C118.473 14.8322 120.17 14.4011 122.044 14.4011C124.237 14.4011 126.159 14.9634 127.808 16.0881C129.458 17.2128 130.611 18.7687 131.267 20.7557H126.74C126.29 19.8184 125.652 19.1155 124.828 18.6468C124.022 18.1782 123.084 17.9439 122.016 17.9439C120.872 17.9439 119.851 18.2157 118.951 18.7593C118.07 19.2842 117.377 20.034 116.87 21.0087C116.383 21.9835 116.139 23.1269 116.139 24.4391C116.139 25.7325 116.383 26.8759 116.87 27.8694C117.377 28.8442 118.07 29.6034 118.951 30.147C119.851 30.6718 120.872 30.9343 122.016 30.9343C123.084 30.9343 124.022 30.7 124.828 30.2313C125.652 29.744 126.29 29.0316 126.74 28.0944H131.267C130.611 30.1001 129.458 31.6653 127.808 32.79C126.177 33.896 124.256 34.449 122.044 34.449C120.17 34.449 118.473 34.0272 116.955 33.1837C115.455 32.3214 114.265 31.1311 113.384 29.6127C112.522 28.0944 112.09 26.3698 112.09 24.4391ZM147.985 14.6541V17.8314H142.755V34.2803H138.818V17.8314H133.589V14.6541H147.985ZM160.979 34.2803L156.649 26.6323H154.793V34.2803H150.857V14.6541H158.224C159.742 14.6541 161.036 14.9259 162.104 15.4695C163.173 15.9944 163.969 16.7161 164.494 17.6346C165.038 18.5344 165.309 19.5466 165.309 20.6713C165.309 21.9647 164.935 23.1363 164.185 24.186C163.435 25.217 162.32 25.9293 160.839 26.323L165.534 34.2803H160.979ZM154.793 23.6799H158.083C159.152 23.6799 159.948 23.4268 160.473 22.9207C160.998 22.3959 161.261 21.6742 161.261 20.7557C161.261 19.8559 160.998 19.1623 160.473 18.675C159.948 18.1688 159.152 17.9158 158.083 17.9158H154.793V23.6799ZM180.904 30.5406H173.088L171.794 34.2803H167.661L174.718 14.626H179.302L186.359 34.2803H182.198L180.904 30.5406ZM179.836 27.3914L176.996 19.1811L174.156 27.3914H179.836Z" fill="#092543"/>
<path d="M78.2676 40.4677V48.3181H76.693V40.4677H78.2676ZM88.4498 48.3181H86.8752L83.3099 42.9308V48.3181H81.7353V40.4564H83.3099L86.8752 45.855V40.4564H88.4498V48.3181ZM97.2603 40.4677V41.7386H95.1683V48.3181H93.5937V41.7386H91.5018V40.4677H97.2603ZM101.896 41.7386V43.7068H104.539V44.9552H101.896V47.0359H104.876V48.3181H100.321V40.4564H104.876V41.7386H101.896ZM112.268 48.3181L110.536 45.2589H109.794V48.3181H108.219V40.4677H111.166C111.773 40.4677 112.291 40.5764 112.718 40.7938C113.145 41.0038 113.464 41.2924 113.674 41.6598C113.891 42.0198 114 42.4246 114 42.8745C114 43.3919 113.85 43.8605 113.55 44.2804C113.25 44.6928 112.804 44.9777 112.212 45.1352L114.09 48.3181H112.268ZM109.794 44.078H111.11C111.537 44.078 111.856 43.9767 112.066 43.7743C112.276 43.5644 112.381 43.2757 112.381 42.9083C112.381 42.5484 112.276 42.2709 112.066 42.076C111.856 41.8735 111.537 41.7723 111.11 41.7723H109.794V44.078ZM124.051 48.3181H122.476L118.911 42.9308V48.3181H117.336V40.4564H118.911L122.476 45.855V40.4564H124.051V48.3181ZM132.333 46.8223H129.206L128.689 48.3181H127.035L129.858 40.4564H131.692L134.515 48.3181H132.85L132.333 46.8223ZM131.905 45.5626L130.769 42.2784L129.633 45.5626H131.905ZM142.824 40.4677V41.7386H140.732V48.3181H139.158V41.7386H137.066V40.4677H142.824ZM147.46 40.4677V48.3181H145.885V40.4677H147.46ZM154.571 48.3968C153.837 48.3968 153.162 48.2244 152.547 47.8795C151.932 47.5346 151.445 47.0584 151.085 46.4511C150.725 45.8363 150.545 45.1427 150.545 44.3704C150.545 43.6056 150.725 42.9195 151.085 42.3122C151.445 41.6973 151.932 41.2175 152.547 40.8725C153.162 40.5276 153.837 40.3552 154.571 40.3552C155.314 40.3552 155.988 40.5276 156.596 40.8725C157.211 41.2175 157.694 41.6973 158.047 42.3122C158.407 42.9195 158.587 43.6056 158.587 44.3704C158.587 45.1427 158.407 45.8363 158.047 46.4511C157.694 47.0584 157.211 47.5346 156.596 47.8795C155.981 48.2244 155.306 48.3968 154.571 48.3968ZM154.571 46.991C155.044 46.991 155.46 46.886 155.82 46.676C156.18 46.4586 156.461 46.1512 156.663 45.7538C156.866 45.3564 156.967 44.8953 156.967 44.3704C156.967 43.8455 156.866 43.3881 156.663 42.9982C156.461 42.6009 156.18 42.2972 155.82 42.0872C155.46 41.8773 155.044 41.7723 154.571 41.7723C154.099 41.7723 153.679 41.8773 153.312 42.0872C152.952 42.2972 152.671 42.6009 152.468 42.9982C152.266 43.3881 152.164 43.8455 152.164 44.3704C152.164 44.8953 152.266 45.3564 152.468 45.7538C152.671 46.1512 152.952 46.4586 153.312 46.676C153.679 46.886 154.099 46.991 154.571 46.991ZM168.384 48.3181H166.81L163.245 42.9308V48.3181H161.67V40.4564H163.245L166.81 45.855V40.4564H168.384V48.3181ZM176.666 46.8223H173.54L173.022 48.3181H171.369L174.192 40.4564H176.025L178.848 48.3181H177.184L176.666 46.8223ZM176.239 45.5626L175.103 42.2784L173.967 45.5626H176.239ZM183.39 47.0697H185.977V48.3181H181.815V40.4677H183.39V47.0697Z" fill="#092543"/>
<path opacity="0.6" d="M77.1204 57.3579H79.0774V57.9597H77.1204V57.3579ZM77.1767 59.045H79.398V59.658H76.4456V55.7215H79.3192V56.3344H77.1767V59.045ZM81.3658 59.658V55.7215H81.9675L84.4362 58.7526H84.1382V55.7215H84.8636V59.658H84.2619L81.7932 56.6269H82.0912V59.658H81.3658ZM86.5145 59.658L88.2859 55.7215H89.0057L90.7828 59.658H90.018L88.494 56.1095H88.7864L87.2681 59.658H86.5145ZM87.3299 58.7469L87.5267 58.1733H89.6524L89.8493 58.7469H87.3299ZM92.4362 59.658V55.7215H94.2807C94.7531 55.7215 95.113 55.8152 95.3605 56.0027C95.6079 56.1864 95.7316 56.4338 95.7316 56.745C95.7316 56.9549 95.6829 57.1349 95.5854 57.2848C95.4879 57.431 95.3567 57.5454 95.1918 57.6279C95.0306 57.7066 94.8543 57.746 94.6631 57.746L94.7644 57.5435C94.9856 57.5435 95.1843 57.5847 95.3605 57.6672C95.5367 57.746 95.6754 57.8622 95.7766 58.0159C95.8816 58.1696 95.9341 58.3608 95.9341 58.5895C95.9341 58.9269 95.8047 59.1893 95.546 59.3768C95.2874 59.5642 94.9031 59.658 94.3932 59.658H92.4362ZM93.1673 59.0844H94.3482C94.6219 59.0844 94.8319 59.0394 94.9781 58.9494C95.1243 58.8594 95.1974 58.7151 95.1974 58.5164C95.1974 58.3214 95.1243 58.179 94.9781 58.089C94.8319 57.9953 94.6219 57.9484 94.3482 57.9484H93.111V57.3804H94.202C94.4569 57.3804 94.6519 57.3354 94.7869 57.2455C94.9256 57.1555 94.9949 57.0205 94.9949 56.8406C94.9949 56.6569 94.9256 56.52 94.7869 56.43C94.6519 56.3401 94.4569 56.2951 94.202 56.2951H93.1673V59.0844ZM97.8671 59.658V55.7215H98.5982V59.0394H100.656V59.658H97.8671ZM102.386 59.658V55.7215H103.117V59.658H102.386ZM105.335 59.658V55.7215H105.937L108.405 58.7526H108.107V55.7215H108.833V59.658H108.231L105.762 56.6269H106.06V59.658H105.335ZM112.879 59.7142C112.572 59.7142 112.289 59.6655 112.03 59.568C111.775 59.4668 111.552 59.3262 111.361 59.1462C111.17 58.9625 111.022 58.7469 110.917 58.4995C110.812 58.2521 110.759 57.9821 110.759 57.6897C110.759 57.3973 110.812 57.1274 110.917 56.8799C111.022 56.6325 111.17 56.4188 111.361 56.2388C111.556 56.0551 111.783 55.9146 112.041 55.8171C112.3 55.7159 112.583 55.6652 112.891 55.6652C113.224 55.6652 113.524 55.7196 113.79 55.8283C114.06 55.9371 114.287 56.0964 114.471 56.3063L114.01 56.7562C113.856 56.6025 113.689 56.49 113.509 56.4188C113.333 56.3438 113.138 56.3063 112.924 56.3063C112.718 56.3063 112.527 56.3401 112.351 56.4076C112.175 56.475 112.023 56.5706 111.895 56.6944C111.768 56.8181 111.668 56.9643 111.597 57.133C111.53 57.3017 111.496 57.4873 111.496 57.6897C111.496 57.8884 111.53 58.0721 111.597 58.2408C111.668 58.4095 111.768 58.5576 111.895 58.6851C112.023 58.8088 112.173 58.9044 112.345 58.9719C112.518 59.0394 112.709 59.0731 112.919 59.0731C113.114 59.0731 113.301 59.0431 113.481 58.9831C113.665 58.9194 113.839 58.8144 114.004 58.6682L114.42 59.2137C114.214 59.3787 113.974 59.5042 113.7 59.5905C113.43 59.673 113.157 59.7142 112.879 59.7142ZM113.729 59.1181V57.6447H114.42V59.2137L113.729 59.1181ZM119.244 59.658V55.7215H120.864C121.212 55.7215 121.511 55.7777 121.758 55.8902C122.009 56.0027 122.202 56.1639 122.337 56.3738C122.472 56.5838 122.54 56.8331 122.54 57.1217C122.54 57.4104 122.472 57.6597 122.337 57.8697C122.202 58.0796 122.009 58.2408 121.758 58.3533C121.511 58.4658 121.212 58.522 120.864 58.522H119.649L119.975 58.179V59.658H119.244ZM119.975 58.2577L119.649 57.9034H120.83C121.153 57.9034 121.394 57.8359 121.556 57.701C121.72 57.5623 121.803 57.3692 121.803 57.1217C121.803 56.8706 121.72 56.6775 121.556 56.5425C121.394 56.4076 121.153 56.3401 120.83 56.3401H119.649L119.975 55.9802V58.2577ZM126.322 59.7142C126.015 59.7142 125.731 59.6636 125.473 59.5624C125.214 59.4611 124.989 59.3205 124.798 59.1406C124.607 58.9569 124.459 58.7432 124.354 58.4995C124.249 58.2521 124.196 57.9821 124.196 57.6897C124.196 57.3973 124.249 57.1292 124.354 56.8856C124.459 56.6381 124.607 56.4244 124.798 56.2445C124.989 56.0608 125.214 55.9183 125.473 55.8171C125.731 55.7159 126.013 55.6652 126.316 55.6652C126.624 55.6652 126.905 55.7159 127.16 55.8171C127.419 55.9183 127.643 56.0608 127.835 56.2445C128.026 56.4244 128.174 56.6381 128.279 56.8856C128.384 57.1292 128.436 57.3973 128.436 57.6897C128.436 57.9821 128.384 58.2521 128.279 58.4995C128.174 58.7469 128.026 58.9606 127.835 59.1406C127.643 59.3205 127.419 59.4611 127.16 59.5624C126.905 59.6636 126.626 59.7142 126.322 59.7142ZM126.316 59.0731C126.515 59.0731 126.699 59.0394 126.867 58.9719C127.036 58.9044 127.182 58.8088 127.306 58.6851C127.43 58.5576 127.525 58.4114 127.593 58.2465C127.664 58.0777 127.7 57.8922 127.7 57.6897C127.7 57.4873 127.664 57.3036 127.593 57.1386C127.525 56.9699 127.43 56.8237 127.306 56.7C127.182 56.5725 127.036 56.475 126.867 56.4076C126.699 56.3401 126.515 56.3063 126.316 56.3063C126.118 56.3063 125.934 56.3401 125.765 56.4076C125.6 56.475 125.454 56.5725 125.327 56.7C125.203 56.8237 125.105 56.9699 125.034 57.1386C124.967 57.3036 124.933 57.4873 124.933 57.6897C124.933 57.8884 124.967 58.0721 125.034 58.2408C125.105 58.4095 125.203 58.5576 125.327 58.6851C125.45 58.8088 125.597 58.9044 125.765 58.9719C125.934 59.0394 126.118 59.0731 126.316 59.0731ZM131.584 59.7142C131.277 59.7142 130.983 59.6711 130.702 59.5849C130.42 59.4949 130.197 59.3805 130.032 59.2418L130.285 58.6738C130.443 58.7976 130.638 58.9007 130.87 58.9831C131.103 59.0656 131.341 59.1069 131.584 59.1069C131.791 59.1069 131.957 59.0844 132.085 59.0394C132.212 58.9944 132.306 58.9344 132.366 58.8594C132.426 58.7807 132.456 58.6926 132.456 58.5951C132.456 58.4751 132.413 58.3795 132.327 58.3083C132.241 58.2333 132.128 58.1752 131.989 58.134C131.854 58.089 131.703 58.0478 131.534 58.0103C131.369 57.9728 131.202 57.9297 131.033 57.8809C130.868 57.8284 130.717 57.7628 130.578 57.6841C130.443 57.6016 130.332 57.4929 130.246 57.3579C130.16 57.223 130.117 57.0505 130.117 56.8406C130.117 56.6269 130.173 56.4319 130.285 56.2557C130.402 56.0758 130.576 55.9333 130.808 55.8283C131.045 55.7196 131.343 55.6652 131.703 55.6652C131.939 55.6652 132.173 55.6952 132.405 55.7552C132.638 55.8152 132.84 55.9014 133.013 56.0139L132.782 56.5819C132.606 56.4769 132.424 56.4001 132.237 56.3513C132.049 56.2988 131.869 56.2726 131.697 56.2726C131.494 56.2726 131.33 56.297 131.202 56.3457C131.078 56.3944 130.986 56.4582 130.926 56.5369C130.87 56.6156 130.842 56.7056 130.842 56.8068C130.842 56.9268 130.883 57.0243 130.966 57.0992C131.052 57.1705 131.163 57.2267 131.298 57.268C131.436 57.3092 131.59 57.3504 131.759 57.3917C131.927 57.4292 132.094 57.4723 132.259 57.521C132.428 57.5698 132.58 57.6335 132.715 57.7122C132.853 57.7909 132.964 57.8978 133.047 58.0328C133.133 58.1677 133.176 58.3383 133.176 58.5445C133.176 58.7544 133.118 58.9494 133.002 59.1293C132.889 59.3056 132.715 59.448 132.479 59.5567C132.242 59.6617 131.944 59.7142 131.584 59.7142ZM135.054 59.658V55.7215H135.785V59.658H135.054ZM138.801 59.658V56.3401H137.496V55.7215H140.837V56.3401H139.532V59.658H138.801ZM142.538 59.658V55.7215H143.269V59.658H142.538ZM146.623 59.658L144.902 55.7215H145.695L147.231 59.2812H146.775L148.327 55.7215H149.058L147.343 59.658H146.623ZM151.301 57.3579H153.258V57.9597H151.301V57.3579ZM151.358 59.045H153.579V59.658H150.626V55.7215H153.5V56.3344H151.358V59.045ZM158.254 59.658V55.7215H158.985V59.658H158.254ZM161.202 59.658V55.7215H161.804L163.525 58.5951H163.21L164.903 55.7215H165.504L165.51 59.658H164.818L164.813 56.8068H164.959L163.519 59.2081H163.193L161.731 56.8068H161.9V59.658H161.202ZM167.726 59.658V55.7215H169.346C169.694 55.7215 169.992 55.7777 170.24 55.8902C170.491 56.0027 170.684 56.1639 170.819 56.3738C170.954 56.5838 171.021 56.8331 171.021 57.1217C171.021 57.4104 170.954 57.6597 170.819 57.8697C170.684 58.0796 170.491 58.2408 170.24 58.3533C169.992 58.4658 169.694 58.522 169.346 58.522H168.131L168.457 58.179V59.658H167.726ZM168.457 58.2577L168.131 57.9034H169.312C169.634 57.9034 169.876 57.8359 170.037 57.701C170.202 57.5623 170.285 57.3692 170.285 57.1217C170.285 56.8706 170.202 56.6775 170.037 56.5425C169.876 56.4076 169.634 56.3401 169.312 56.3401H168.131L168.457 55.9802V58.2577ZM172.15 59.658L173.921 55.7215H174.641L176.418 59.658H175.653L174.129 56.1095H174.422L172.903 59.658H172.15ZM172.965 58.7469L173.162 58.1733H175.288L175.485 58.7469H172.965ZM179.839 59.7142C179.539 59.7142 179.259 59.6655 179.001 59.568C178.746 59.4668 178.523 59.3262 178.332 59.1462C178.144 58.9625 177.998 58.7469 177.893 58.4995C177.788 58.2521 177.735 57.9821 177.735 57.6897C177.735 57.3973 177.788 57.1274 177.893 56.8799C177.998 56.6325 178.146 56.4188 178.337 56.2388C178.528 56.0551 178.751 55.9146 179.006 55.8171C179.261 55.7159 179.541 55.6652 179.844 55.6652C180.167 55.6652 180.461 55.7215 180.727 55.834C180.993 55.9427 181.218 56.1058 181.402 56.3232L180.93 56.7675C180.787 56.6138 180.628 56.4994 180.452 56.4244C180.275 56.3457 180.084 56.3063 179.878 56.3063C179.672 56.3063 179.482 56.3401 179.31 56.4076C179.141 56.475 178.993 56.5706 178.866 56.6944C178.742 56.8181 178.645 56.9643 178.573 57.133C178.506 57.3017 178.472 57.4873 178.472 57.6897C178.472 57.8922 178.506 58.0777 178.573 58.2465C178.645 58.4152 178.742 58.5614 178.866 58.6851C178.993 58.8088 179.141 58.9044 179.31 58.9719C179.482 59.0394 179.672 59.0731 179.878 59.0731C180.084 59.0731 180.275 59.0356 180.452 58.9606C180.628 58.8819 180.787 58.7638 180.93 58.6064L181.402 59.0562C181.218 59.2699 180.993 59.433 180.727 59.5455C180.461 59.658 180.165 59.7142 179.839 59.7142ZM184.01 59.658V56.3401H182.705V55.7215H186.046V56.3401H184.741V59.658H184.01Z" fill="#092543"/>
<path d="M28.596 17.4418C26.405 16.9304 24.165 16.659 21.9153 16.6325C19.7854 16.6325 26.175 8.113 29.6609 10.4842C33.6722 13.2886 37.0161 10.2216 38.4857 10.2216C43.8317 10.2216 46.7709 21.8435 46.7709 29.0637C46.636 36.5467 42.5963 7.80772 28.596 17.4418ZM38.4857 5.0105C38.4857 -1.67017 28.4611 -1.67017 28.4611 5.0105C28.3262 11.6912 38.4857 11.6912 38.4857 5.0105Z" fill="#03A104"/>
<mask id="mask0_1184_9451" style="mask-type:luminance" maskUnits="userSpaceOnUse" x="-1" y="17" width="36" height="25">
<path d="M34.028 17.9741H-0.000244141V41.5304H34.028V17.9741Z" fill="white"/>
</mask>
<g mask="url(#mask0_1184_9451)">
<path d="M12.1611 40.9554C8.82426 38.1155 7.75223 34.2747 7.75223 33.2027C7.75223 30.2634 11.4866 30.5332 11.4866 25.5849C11.4866 24.385 10.5495 22.2481 12.6864 20.7714C20.4392 15.6952 33.403 20.7714 33.403 21.0411C33.403 21.3109 11.089 19.8768 15.2281 34.0049C14.0023 36.2265 12.976 38.5525 12.1611 40.9554ZM10.0312 25.7268C10.0312 19.0391 0.00659557 19.0391 0.00659557 25.7268C-0.000504003 32.2655 10.0241 32.2655 10.0241 25.7268H10.0312Z" fill="#074BF3"/>
</g>
<path d="M32.6067 56.8582C29.6604 58.7254 23.2494 60.195 22.0496 56.8582C19.3731 49.5102 13.2248 56.0844 13.2248 46.855C13.2248 38.9745 20.3244 29.88 20.3244 30.6893C20.3244 30.952 12.1741 51.3916 27.0051 51.8033C28.5966 53.7707 30.4868 55.4764 32.6067 56.8582ZM10.8252 58.9881C10.8252 65.8036 20.8427 65.3777 20.8427 58.9881C20.8427 52.5985 10.8252 52.1796 10.8252 58.9952V58.9881Z" fill="#FFBD33"/>
<path d="M41.9643 58.4628C33.1395 58.4628 24.7194 46.0386 25.259 46.0386C25.3939 46.0386 42.7594 59.7976 47.5729 46.1664C54.6725 43.0923 54.5234 40.4229 54.5234 45.4991C54.5234 48.0407 53.7212 52.3146 50.9168 52.4495C44.4988 52.7193 45.9613 58.4628 41.9643 58.4628ZM45.9613 58.9953C45.9613 65.3849 55.9859 65.9458 55.9859 58.9953C55.993 52.3075 45.9613 52.4424 45.9613 58.9953Z" fill="#9B05B7"/>
<mask id="mask1_1184_9451" style="mask-type:luminance" maskUnits="userSpaceOnUse" x="41" y="17" width="27" height="30">
<path d="M67.0129 17.1646H41.3408V46.4076H67.0129V17.1646Z" fill="white"/>
</mask>
<g mask="url(#mask1_1184_9451)">
<path d="M58.6624 32.9394C58.6624 40.1525 41.5596 46.968 41.5596 46.0309C41.5596 45.896 60.2669 33.8694 48.6591 24.9098C48.4412 22.4161 47.9483 19.9542 47.1895 17.5688C50.0019 17.8101 52.6671 18.9303 54.8074 20.7707C56.5468 22.3752 55.4747 23.9797 55.4747 25.5842C55.3256 29.993 58.6624 30.3977 58.6624 32.9394ZM66.8127 25.7262C66.8127 19.0385 56.7881 19.0385 56.7881 25.7262C56.7952 32.2649 66.8127 32.2649 66.8127 25.7262Z" fill="#F01216"/>
</g>
<mask id="mask2_1184_9451" style="mask-type:luminance" maskUnits="userSpaceOnUse" x="23" y="24" width="21" height="22">
<path d="M43.8966 24.2925H23.5918V45.3568H43.8966V24.2925Z" fill="white"/>
</mask>
<g mask="url(#mask2_1184_9451)">
<path d="M33.7945 24.456C31.7954 24.4193 29.8307 24.9784 28.1503 26.0619C26.47 27.1454 25.1501 28.7044 24.3586 30.5405C23.5671 32.3765 23.3399 34.4065 23.7058 36.3722C24.0717 38.3378 25.0142 40.1501 26.4133 41.5783C27.8124 43.0066 29.6049 43.9862 31.5626 44.3925C33.5203 44.7989 35.5546 44.6135 37.4065 43.86C39.2585 43.1065 40.8444 41.819 41.9623 40.1613C43.0802 38.5037 43.6796 36.5509 43.6842 34.5515C43.7107 31.9015 42.6838 29.3495 40.8293 27.4564C38.9748 25.5633 36.4444 24.4841 33.7945 24.456ZM33.7945 44.7606C31.7607 44.7987 29.7617 44.2301 28.0525 43.1273C26.3433 42.0245 25.0014 40.4376 24.1978 38.5689C23.3943 36.7003 23.1657 34.6346 23.5411 32.6355C23.9165 30.6363 24.879 28.7943 26.3056 27.3445C27.7323 25.8946 29.5586 24.9026 31.5514 24.495C33.5443 24.0874 35.6133 24.2827 37.4947 25.056C39.3761 25.8293 40.9845 27.1455 42.1147 28.8367C43.2449 30.5279 43.8456 32.5174 43.8404 34.5515C43.8555 37.2355 42.8072 39.8164 40.9246 41.7295C39.042 43.6427 36.4784 44.7325 33.7945 44.7606Z" fill="#A2E6F9"/>
</g>
<mask id="mask3_1184_9451" style="mask-type:luminance" maskUnits="userSpaceOnUse" x="23" y="24" width="21" height="22">
<path d="M43.8966 24.2925H23.5918V45.3568H43.8966V24.2925Z" fill="white"/>
</mask>
<g mask="url(#mask3_1184_9451)">
<path d="M43.7692 34.5516C43.7356 36.52 43.1206 38.4346 42.0016 40.0544C40.8827 41.6743 39.3097 42.9271 37.4806 43.6552C35.6515 44.3834 33.6478 44.5544 31.7218 44.1468C29.7957 43.7391 28.0332 42.771 26.6559 41.3642C25.2786 39.9574 24.3481 38.1748 23.9814 36.2405C23.6146 34.3062 23.8281 32.3067 24.5948 30.4934C25.3616 28.6801 26.6475 27.1341 28.2907 26.0497C29.9339 24.9654 31.8611 24.3911 33.8298 24.3993C36.4924 24.433 39.0332 25.5202 40.896 27.4229C42.7588 29.3256 43.7919 31.8889 43.7692 34.5516Z" fill="#086BBC"/>
<path d="M43.7692 34.5516C43.7356 36.52 43.1206 38.4346 42.0016 40.0544C40.8827 41.6743 39.3097 42.9271 37.4806 43.6552C35.6515 44.3834 33.6478 44.5544 31.7218 44.1468C29.7957 43.7391 28.0332 42.771 26.6559 41.3642C25.2786 39.9574 24.3481 38.1748 23.9814 36.2405C23.6146 34.3062 23.8281 32.3067 24.5948 30.4934C25.3616 28.6801 26.6475 27.1341 28.2907 26.0497C29.9339 24.9654 31.8611 24.3911 33.8298 24.3993C36.4924 24.433 39.0332 25.5202 40.896 27.4229C42.7588 29.3256 43.7919 31.8889 43.7692 34.5516Z" fill="#086BBC"/>
</g>
<mask id="mask4_1184_9451" style="mask-type:luminance" maskUnits="userSpaceOnUse" x="26" y="24" width="18" height="16">
<path d="M43.9028 24.2925H26.0332V39.6701H43.9028V24.2925Z" fill="white"/>
</mask>
<g mask="url(#mask4_1184_9451)">
<path d="M33.7929 24.3779C32.4516 24.3765 31.124 24.6484 29.8912 25.1769C28.6584 25.7054 27.5462 26.4795 26.6224 27.452C26.5394 27.9829 26.4966 28.5192 26.4946 29.0565C26.4699 31.7205 27.5022 34.2855 29.3652 36.1898C31.2283 38.0941 33.7701 39.1823 36.434 39.216C37.777 39.2159 39.1059 38.9413 40.339 38.409C41.5721 37.8767 42.6833 37.0979 43.6045 36.1206C43.6951 35.6021 43.7473 35.0777 43.7607 34.5516C43.7853 31.889 42.7526 29.3254 40.8892 27.4234C39.0258 25.5214 36.4839 24.4363 33.8213 24.4063" fill="#0C7BC6"/>
</g>
<mask id="mask5_1184_9451" style="mask-type:luminance" maskUnits="userSpaceOnUse" x="30" y="24" width="14" height="9">
<path d="M43.0872 24.2922H30.9043V32.3573H43.0872V24.2922Z" fill="white"/>
</mask>
<g mask="url(#mask5_1184_9451)">
<path d="M33.7947 24.3779C32.9469 24.3791 32.1026 24.4865 31.2815 24.6974C31.2302 25.031 31.2041 25.368 31.2034 25.7055C31.1882 27.3688 31.834 28.9701 32.9988 30.1576C34.1637 31.345 35.7522 32.0215 37.4155 32.0383C38.3954 32.0366 39.3609 31.8021 40.2323 31.354C41.1038 30.9059 41.8563 30.2572 42.4278 29.4612C41.5678 27.9254 40.3154 26.6454 38.7986 25.7523C37.2817 24.8592 35.5549 24.3849 33.7947 24.3779Z" fill="#168FD3"/>
</g>
<mask id="mask6_1184_9451" style="mask-type:luminance" maskUnits="userSpaceOnUse" x="23" y="24" width="21" height="20">
<path d="M43.8966 24.2925H23.5918V43.731H43.8966V24.2925Z" fill="white"/>
</mask>
<g mask="url(#mask6_1184_9451)">
<path d="M41.9727 31.4207C42.136 31.4207 42.136 31.4207 42.0721 31.0941C42.0082 30.7675 41.9088 30.732 41.6603 30.5403C41.4857 30.4041 41.3241 30.252 41.1775 30.086C41.1341 30.213 41.1327 30.3507 41.1736 30.4785C41.2146 30.6064 41.2956 30.7177 41.4047 30.7959C41.7171 31.0941 41.8165 31.4562 41.9727 31.4207ZM41.8804 33.9907C41.7626 33.8757 41.6256 33.782 41.4757 33.7138L41.5254 33.9552C41.5596 34.0684 41.5811 34.1851 41.5893 34.3031C41.5893 34.438 41.8733 34.6297 42.1289 34.6439C42.3845 34.6581 42.6116 35.3538 42.8388 35.4106C43.066 35.4674 42.7536 35.5313 42.8743 35.7585C42.995 35.9857 43.2364 35.3467 43.3216 35.0486C43.4068 34.7504 43.3855 35.8295 43.3642 36.3052C43.3429 36.7808 42.8317 37.3204 42.6542 37.576C42.4767 37.8316 42.5335 38.5131 42.5335 38.7119C42.4047 39.134 42.2259 39.5391 42.0011 39.9188C41.6075 40.4842 41.1707 41.0182 40.6948 41.5162C40.496 41.6653 39.1471 42.8225 39.1471 42.8225C39.12 42.6699 39.12 42.5137 39.1471 42.3611C39.1727 42.2274 39.1727 42.0901 39.1471 41.9564C39.2262 41.637 39.366 41.3357 39.5588 41.069C39.7292 40.7921 39.7434 40.7495 39.6085 40.5578C39.4736 40.3661 39.1258 40.0182 39.1542 39.6775C39.1826 39.3367 39.3387 39.3864 39.2748 39.2018C39.2109 39.0172 38.9341 39.2018 38.6359 39.2018C38.3377 39.2018 38.4371 39.1663 38.1673 39.287C37.8975 39.4077 37.791 39.6065 37.4006 39.5426C37.0101 39.4787 37.003 39.7484 36.2859 39.8478C35.5689 39.9472 35.7677 39.5639 35.6257 39.358C35.4837 39.1521 35.4198 38.9959 35.1358 38.9462C34.8518 38.8965 34.9725 38.7971 34.9725 38.6622C34.9725 38.5273 34.9228 38.293 34.9228 38.1227C34.9049 37.7204 34.9359 37.3176 35.0151 36.9228C35.1287 36.5821 35.6825 36.1561 35.8883 35.9218C36.0942 35.6875 36.0019 35.4816 36.0871 35.4461C36.2534 35.2903 36.399 35.1137 36.5202 34.9208C36.5526 34.8686 36.6037 34.8307 36.6631 34.8149C36.7224 34.799 36.7856 34.8064 36.8397 34.8356C37.0101 34.9208 37.0385 34.7504 37.2728 34.6368C37.5071 34.5232 38.0679 34.3315 38.3661 34.1966C38.6643 34.0617 38.7282 34.1966 38.8347 34.4167C38.9412 34.6368 39.0832 34.7291 39.218 34.6226C39.3529 34.5161 39.6866 34.6226 40.0558 34.6226C40.425 34.6226 40.1055 34.367 40.1055 34.2676C40.1055 34.1682 40.4392 34.0688 40.7161 34.0688C40.9929 34.0688 41.2627 33.7564 41.426 33.6286C41.5893 33.5009 41.426 33.1672 41.3763 32.9187C41.3266 32.6702 41.2911 32.6418 41.0142 32.7838C40.7374 32.9258 40.8084 33.1459 40.6096 33.0394C40.4108 32.9329 40.4108 32.6702 40.425 32.4785C40.4392 32.2868 41.0284 31.8183 41.1917 31.513C41.355 31.2077 40.8084 31.3426 40.78 31.2929C40.7516 31.2432 40.5315 30.8172 40.5386 30.9663C40.5457 31.1154 40.5386 31.5485 40.3966 31.4775C40.2546 31.4065 40.0984 31.5769 40.1126 31.7118C40.1268 31.8467 40.2617 32.2371 40.2972 32.4217C40.3327 32.6063 39.9351 32.7625 39.9848 32.9258C40.0345 33.0891 40.2333 33.3518 40.212 33.4512C40.1907 33.5505 39.9635 33.4867 39.9635 33.4867C39.9635 33.4867 39.8286 33.1601 39.715 33.1246C39.6014 33.0891 39.4949 32.9045 39.4949 32.9045C39.3941 32.7656 39.2488 32.6654 39.0832 32.6205C38.8276 32.5708 38.4939 32.585 38.5152 32.6205C38.642 32.7551 38.794 32.8636 38.9625 32.94C39.1329 33.011 39.3316 33.0749 39.3316 33.0749C39.3316 33.0749 39.2961 33.4441 39.2819 33.5009C39.2677 33.5576 39.1471 33.1956 39.1471 33.1956L38.9057 33.1317C38.6785 33.0607 38.2951 33.011 38.1957 32.8548C38.0963 32.6986 38.0963 32.9684 37.8549 33.0465C37.6135 33.1246 37.5425 33.1317 37.5071 33.3092C37.4716 33.4867 37.5071 33.5647 37.2941 33.7209C37.0811 33.8771 37.2941 33.9197 37.2089 34.225C37.1237 34.5303 36.9107 34.509 36.6764 34.5658C36.4937 34.6286 36.2975 34.6408 36.1084 34.6013C35.8245 34.5516 35.9735 34.2534 35.8742 33.9907C35.7748 33.728 36.0729 33.4654 36.3711 33.4299C36.6693 33.3944 36.8539 33.153 36.7829 32.9897C36.7119 32.8264 36.3356 32.5992 36.6125 32.4501C36.8894 32.301 36.9462 32.2087 36.9462 32.2087C37.0195 32.0065 37.0811 31.8003 37.1308 31.5911C37.1663 31.4207 38.1105 31.1651 38.1815 31.1367C38.2525 31.1083 38.4513 30.7746 38.4016 30.661C38.3519 30.5474 38.5365 30.3416 38.4939 30.1002C38.4513 29.8588 38.2809 29.8659 38.0182 29.8162C37.7555 29.7665 38.0182 29.4825 37.933 29.2908C37.8478 29.0991 37.7626 29.1701 37.72 29.4044C37.6689 29.5831 37.6689 29.7724 37.72 29.9511C37.7697 30.1215 38.0395 30.3203 38.0537 30.5474C38.0679 30.7746 37.9685 31.0018 37.8549 31.0018C37.7413 31.0018 37.6916 30.7462 37.4787 30.6326C37.2657 30.519 37.2089 30.7178 36.9249 30.6823C36.6409 30.6468 36.5415 30.3416 36.6054 30.2422C36.6693 30.1428 36.7403 29.9511 36.9036 29.5961C37.0264 29.2845 37.0844 28.9511 37.074 28.6164C37.074 28.2401 37.2089 28.446 37.4219 28.4602C37.5207 28.4763 37.6218 28.4726 37.7193 28.4495C37.8168 28.4263 37.9087 28.3841 37.9898 28.3253C38.1886 28.1904 38.2383 28.3253 38.2383 28.4602C38.2493 28.5923 38.273 28.7231 38.3093 28.8507C38.3093 28.8507 38.5578 28.8507 38.6075 28.7655C38.6596 28.6234 38.6596 28.4674 38.6075 28.3253C38.5436 28.1904 38.4939 28.1052 38.6075 27.9845C38.7211 27.8638 38.7495 27.665 38.5578 27.2746C38.3661 26.8841 38.7779 27.019 38.6927 26.9338C38.5629 26.835 38.4252 26.7472 38.2809 26.6711C38.2934 26.5301 38.2501 26.3899 38.1602 26.2806C38.0182 26.1102 37.8833 26.1954 37.5071 26.0392C37.1308 25.883 37.4148 25.7837 37.1592 25.5991C36.9036 25.4145 36.6835 25.4429 36.6125 25.3648C36.5415 25.2867 36.8255 25.2796 36.7119 25.1447C36.4855 24.9627 36.2484 24.7944 36.0019 24.6406C37.7205 25.0259 39.3075 25.8565 40.6035 27.0491C41.8995 28.2417 42.8589 29.7542 43.3855 31.4349C43.3358 31.5911 43.279 31.7331 43.2506 31.7331C43.2222 31.7331 43.1654 31.7828 43.1654 32.0028C43.141 32.2088 43.0732 32.4072 42.9666 32.585C42.9169 32.6986 42.8175 32.585 42.6826 32.4288C42.5477 32.2726 42.6187 32.5495 42.5974 32.6347C42.5761 32.7199 42.9169 32.8903 42.9808 32.9187C43.0447 32.9471 43.1654 32.5495 43.1654 32.5495C43.2136 32.649 43.2379 32.7584 43.2364 32.869C43.2364 33.0678 43.4849 33.4796 43.4636 33.7493C43.4423 34.0191 43.2506 34.296 43.1867 34.722C43.1228 35.1479 43.0376 35.006 42.9524 35.226C42.8672 35.4461 42.7323 34.9066 42.5903 34.7504C42.4484 34.5942 42.4413 34.5161 42.3064 34.438C42.1715 34.3599 42.0295 34.1398 41.8804 33.9907ZM26.4956 35.8508C26.4104 35.936 26.3536 36.007 26.4317 36.1277C26.5098 36.2484 26.5737 36.3833 26.7015 36.4117C26.8293 36.4401 26.95 36.4969 26.9642 36.3549C26.9784 36.2129 26.8506 36.2697 26.7867 36.1206C26.7138 36.0077 26.6137 35.9149 26.4956 35.8508ZM25.8425 35.7656C25.8425 35.8863 25.8922 35.9573 25.9632 35.9573C26.0341 35.9573 26.0483 35.8437 26.0483 35.8437L25.8425 35.7656ZM25.594 34.7007C25.576 34.7858 25.5824 34.8744 25.6126 34.956C25.6427 35.0377 25.6953 35.1091 25.7644 35.1621C25.9135 35.3183 25.8851 35.5739 25.9703 35.6023C26.0554 35.6307 26.3536 35.8011 26.3536 35.6733C26.3536 35.5455 26.3536 35.5384 26.2187 35.3467C26.0838 35.155 25.9206 35.0911 25.8496 34.9421C25.7879 34.8321 25.6901 34.7468 25.5727 34.7007H25.594ZM38.8276 33.7706L39.0974 33.87V33.6357L38.8276 33.7706ZM38.1602 33.3944C38.1602 33.5222 38.43 33.7635 38.43 33.7635L38.4797 33.6073L38.1602 33.3944ZM34.3051 30.6042C34.3974 30.6042 34.6388 30.2848 34.6388 30.2848C34.6388 30.2848 34.5394 30.0647 34.3903 30.0647C34.2412 30.0647 34.007 30.2848 33.9573 30.2848C33.9076 30.2848 34.2058 30.6326 34.3051 30.6042ZM35.7251 27.6863C35.7251 27.878 35.7251 27.9774 35.9238 28.0271C36.1226 28.0768 36.1723 28.0271 36.1723 27.9135C36.1813 27.7973 36.2051 27.6828 36.2433 27.5727H35.9735L35.7251 27.6863ZM35.4766 31.6408C35.4313 31.797 35.3957 31.9558 35.3701 32.1164C35.3701 32.2016 35.5689 32.3578 35.5689 32.3578C35.6377 32.2557 35.6949 32.1461 35.7393 32.0312C35.7393 31.9461 35.789 31.797 35.789 31.797L35.4766 31.6408ZM35.9238 31.2503C35.9883 31.326 36.0362 31.4144 36.0643 31.5098C36.0925 31.6052 36.1002 31.7055 36.0871 31.8041C36.0934 32.0331 36.1316 32.2601 36.2007 32.4785L36.6196 32.1945C36.79 32.0667 36.79 31.8822 36.7048 31.8325C36.5364 31.7146 36.3978 31.559 36.3001 31.3781C36.2469 31.2909 36.1768 31.2151 36.0939 31.1554C36.011 31.0957 35.9169 31.0531 35.8174 31.0302C35.8174 31.0302 35.8458 31.2077 35.9309 31.2503H35.9238ZM29.2219 26.0818C29.5874 25.7729 29.9848 25.504 30.4075 25.2796C30.7273 25.1249 31.0257 24.9292 31.2949 24.6974C29.5259 25.1743 27.9203 26.1243 26.6507 27.4452C25.381 28.7661 24.4954 30.408 24.0889 32.1945C24.0889 32.4501 24.1457 32.6489 24.1457 32.7057C24.1457 32.8761 24.1457 33.9268 24.1457 34.2321C24.1472 34.3937 24.1806 34.5533 24.244 34.702C24.3073 34.8506 24.3994 34.9853 24.5148 35.0982C24.6923 35.1976 24.8485 35.8082 24.8982 36.1348C24.9944 36.5591 25.1835 36.9568 25.452 37.2991C25.4952 37.3457 25.5277 37.4012 25.5471 37.4617C25.5664 37.5222 25.5723 37.5862 25.5641 37.6492C25.556 37.7122 25.5341 37.7727 25.5 37.8263C25.4659 37.8799 25.4204 37.9253 25.3668 37.9594C25.2242 38.1271 25.1308 38.3311 25.097 38.5486C25.097 38.7119 25.2816 38.9746 25.2674 39.1024C25.2632 39.199 25.2823 39.2953 25.323 39.383C25.3638 39.4707 25.4251 39.5474 25.5017 39.6065C25.7672 39.9911 26.0045 40.3944 26.2116 40.8134C26.3252 40.9838 26.5524 41.147 26.7228 41.4878C27.4845 42.256 28.3671 42.8939 29.3354 43.3763C29.3354 43.3763 29.4561 43.2414 29.52 43.2414C29.5839 43.2414 29.9531 43.4757 29.9531 43.2556C29.9531 43.0355 30.2016 42.9503 30.6631 42.9716C31.1245 42.9929 31.1742 42.9716 31.2594 42.8154C31.3446 42.6593 31.1884 42.1055 31.2594 41.9848C31.3304 41.8641 31.5576 41.6653 31.5576 41.4807C31.5576 41.2961 30.9612 40.9199 30.7057 40.8631C30.4501 40.8063 30.4288 40.5933 30.2726 40.5152C30.0797 40.3613 29.8537 40.2543 29.6123 40.2028C29.3141 40.2028 29.4064 39.8336 29.229 39.5781C29.0425 39.3285 28.7686 39.1586 28.4622 39.1024C28.2563 39.1024 28.2421 38.9675 28.2776 38.8113C28.3131 38.6551 28.1782 38.5557 27.8729 38.1865C27.5677 37.8174 27.2553 37.8245 27.0423 37.6044C26.8293 37.3843 26.524 37.15 26.524 37.15C26.524 37.15 26.2684 37.15 26.02 37.15C25.7715 37.15 25.878 37.3914 25.878 37.3914C25.878 37.3914 25.6082 37.1145 25.452 36.937C25.3307 36.7212 25.2976 36.4668 25.3597 36.2271C25.3946 36.0932 25.3851 35.9516 25.3326 35.8235C25.2801 35.6955 25.1875 35.588 25.0686 35.5171C24.7278 35.297 24.8201 35.1905 24.9053 35.0131C24.9905 34.8356 25.1396 34.7575 25.0899 34.5871C25.0402 34.4167 24.9195 34.5445 24.7349 34.5871C24.5503 34.6297 24.5716 34.367 24.5219 34.1469C24.484 33.9042 24.5237 33.6557 24.6355 33.437C24.7205 33.2009 24.8647 32.9906 25.0544 32.8264C25.1893 32.727 25.2248 32.9187 25.2887 33.1175C25.3526 33.3163 25.3384 33.2311 25.5585 33.2666C25.7786 33.3021 25.7928 33.508 25.7928 33.7422C25.7928 33.9765 25.6579 34.3528 25.8567 34.2463C26.0554 34.1398 26.098 33.6854 26.1406 33.5364C26.1832 33.3873 26.5098 33.4015 26.7796 33.3021C27.0494 33.2027 27.2979 32.7554 27.376 32.6702C27.4541 32.585 27.7948 32.7199 27.7948 32.7199C27.9177 32.617 28.0538 32.5311 28.1995 32.4643C28.448 32.3436 28.4622 32.5779 28.5119 32.5779C28.5616 32.5779 28.9592 32.5779 28.9166 32.514C28.8867 32.4495 28.8712 32.3792 28.8712 32.3081C28.8712 32.237 28.8867 32.1668 28.9166 32.1022C28.9805 32.0099 28.7462 31.584 28.8456 31.584C28.945 31.584 29.2929 31.8183 29.5129 31.8183C29.733 31.8183 29.8111 31.7331 29.7827 31.8822C29.7543 32.0312 29.449 32.2584 29.449 32.2584C29.6218 32.3793 29.7877 32.5096 29.946 32.6489C30.1164 32.8051 30.1448 32.3791 30.0312 32.1448C29.9176 31.9106 30.1803 31.6266 30.0951 31.4349C29.9452 31.0644 29.8264 30.6821 29.7401 30.2919C29.7401 30.0576 29.5058 30.3771 29.4419 30.3771C29.3824 30.3389 29.3392 30.28 29.3208 30.2117C29.3024 30.1434 29.3102 30.0707 29.3425 30.0079C29.3863 29.9062 29.3933 29.7924 29.3622 29.6861C29.3311 29.5798 29.2639 29.4877 29.1722 29.4257C28.9734 29.2553 28.9734 29.5322 28.7746 29.7523C28.5758 29.9724 28.5616 30.2422 28.3557 30.228C28.1498 30.2138 27.8019 30.6823 27.8019 30.6823C27.7882 30.5876 27.7964 30.4909 27.8259 30.3998C27.8555 30.3087 27.9056 30.2256 27.9723 30.157C28.2066 29.8943 27.8232 29.5038 27.8587 29.1985C27.9089 29.04 28.0132 28.9041 28.1533 28.8146C28.2934 28.7251 28.4606 28.6876 28.6255 28.7087C28.8882 28.7939 28.874 29.0281 28.9592 28.9074C29.0444 28.7868 29.2077 28.6022 29.2787 28.6874C29.3496 28.7726 29.6762 28.5028 29.7898 28.375C29.9034 28.2472 29.9389 28.6306 29.9389 28.6306C29.9389 28.6306 29.9389 28.9216 29.8324 29.021C29.7259 29.1204 29.3922 29.1062 29.3354 29.1062C29.402 29.3511 29.4923 29.5889 29.6052 29.8162C29.7416 29.8105 29.8761 29.7817 30.0028 29.731C30.0951 29.66 30.1732 29.3192 30.1732 29.3192H30.5069C30.5069 29.3192 30.4075 28.7442 30.4075 28.6945V28.1336C30.4075 28.0271 30.2087 28.0129 30.0738 28.0129C29.9389 28.0129 30.0738 27.7076 30.0738 27.7076C30.0738 27.7076 29.9247 27.7573 29.7401 27.8425C29.5555 27.9277 29.7401 28.162 29.6265 28.2756C29.5129 28.3892 29.3567 28.2756 29.2929 28.2756C29.229 28.2756 29.3851 27.8212 29.3851 27.8212L28.9734 28.0413C28.9367 27.9202 28.8736 27.8087 28.7888 27.7147C28.6539 27.5798 28.7888 27.3243 28.7888 27.3243L28.9237 27.4804L29.2858 27.4094C29.3939 27.2536 29.4755 27.0808 29.5271 26.8983C29.5271 26.7634 28.9379 27.0048 28.9379 27.0048C29.0148 26.8621 29.0836 26.7151 29.1438 26.5646C29.189 26.4071 29.2176 26.2453 29.229 26.0818H29.2219ZM31.1884 27.7928L31.089 28.1123C31.089 28.1123 31.5008 28.2188 31.5576 28.4034C31.6144 28.588 31.7706 28.9429 31.5576 29.0778C31.4659 29.1367 31.3871 29.2136 31.326 29.304C31.265 29.3943 31.223 29.4961 31.2026 29.6032C31.2026 29.7736 31.1174 30.1073 31.1387 30.1712C31.16 30.2351 31.089 30.6184 31.3162 30.6681C31.5434 30.7178 31.8558 30.8882 31.8842 30.7533C31.9126 30.6184 32.0688 30.0434 32.2889 30.0434C32.509 30.0434 32.6935 29.7026 32.9988 29.7026C33.3041 29.7026 33.5171 29.9014 33.652 29.7026C33.7869 29.5038 33.7656 29.0565 33.865 28.9216C33.9644 28.7868 34.1419 28.5809 34.1419 28.4886C34.1419 28.3963 33.9147 28.2472 33.9786 28.1407C34.0425 28.0342 34.2483 27.7999 34.2483 27.7999C34.2483 27.7999 33.5952 27.9916 33.4958 27.7999C33.3964 27.6082 33.7656 27.5443 32.9988 27.5798C32.2321 27.6153 31.1955 27.7928 31.1955 27.7928H31.1884ZM30.4359 27.4023C30.5696 27.3973 30.7026 27.3806 30.8335 27.3526C30.9109 27.2911 30.9844 27.2247 31.0535 27.1539C30.9211 27.1608 30.7884 27.1608 30.656 27.1539C30.4856 27.1539 30.656 26.9338 30.8832 26.8486C30.9471 26.8275 31.0162 26.8287 31.0794 26.8519C31.1425 26.8751 31.196 26.9189 31.231 26.9764C31.2567 27.0316 31.2998 27.0768 31.3537 27.105C31.4076 27.1332 31.4693 27.1429 31.5292 27.1326C31.7422 27.1326 31.8771 27.3385 31.8771 27.3385C31.8182 27.4236 31.7381 27.492 31.6447 27.5368C31.5514 27.5816 31.4479 27.6013 31.3446 27.594C31.1807 27.5875 31.017 27.6116 30.8619 27.665C30.7531 27.6457 30.6463 27.6172 30.5424 27.5798L30.4927 27.7928H30.2939C30.2553 27.6528 30.167 27.5316 30.0454 27.452C29.8608 27.3384 30.0454 27.2533 30.1377 27.0829L30.4146 27.4094" fill="#AECE28"/>
</g>
<path d="M35.7256 27.6861C35.7256 27.8778 35.7256 27.9772 35.9244 28.0269C36.1232 28.0766 36.1729 28.0269 36.1729 27.9133C36.1818 27.7971 36.2056 27.6826 36.2439 27.5725H35.9741L35.7256 27.6577" fill="#B9DB28"/>
<path d="M36.2076 32.4778L36.6265 32.1939C36.7969 32.0661 36.7969 31.8815 36.7117 31.8318C36.5432 31.7139 36.4047 31.5583 36.307 31.3774C36.2538 31.2902 36.1836 31.2145 36.1007 31.1547C36.0178 31.095 35.9238 31.0524 35.8242 31.0295C35.8242 31.0295 35.8242 31.207 35.9307 31.2496C35.9952 31.3253 36.0431 31.4138 36.0712 31.5092C36.0993 31.6046 36.1071 31.7048 36.094 31.8034C36.1002 32.0324 36.1385 32.2594 36.2076 32.4778Z" fill="#B9DB28"/>
<mask id="mask7_1184_9451" style="mask-type:luminance" maskUnits="userSpaceOnUse" x="26" y="24" width="6" height="10">
<path d="M31.72 24.2925H26.0332V33.174H31.72V24.2925Z" fill="white"/>
</mask>
<g mask="url(#mask7_1184_9451)">
<path d="M27.2042 32.8615C27.2441 32.7987 27.2893 32.7394 27.339 32.684C27.4242 32.5989 27.7579 32.7337 27.7579 32.7337C27.8774 32.6298 28.0113 32.5437 28.1555 32.4782C28.4111 32.3575 28.4253 32.5918 28.475 32.5918C28.5247 32.5918 28.9223 32.5918 28.8797 32.5279C28.8498 32.4633 28.8343 32.3931 28.8343 32.322C28.8343 32.2509 28.8498 32.1806 28.8797 32.1161C28.9436 32.0238 28.7093 31.5907 28.8087 31.5907C28.9081 31.5907 29.2559 31.8321 29.476 31.8321C29.6961 31.8321 29.7742 31.7469 29.7458 31.896C29.7174 32.0451 29.405 32.2723 29.405 32.2723C29.5806 32.3923 29.7489 32.5227 29.9091 32.6627C30.0795 32.8189 30.1079 32.393 29.9943 32.1516C29.8807 31.9102 30.1363 31.6404 30.0582 31.4771C29.9204 31.0915 29.8159 30.6949 29.7458 30.2915C29.7458 30.0572 29.5115 30.3767 29.4476 30.3767C29.3868 30.3397 29.3422 30.2812 29.3225 30.2129C29.3027 30.1445 29.3094 30.0712 29.3411 30.0075C29.3885 29.9071 29.3981 29.7929 29.3681 29.686C29.3381 29.579 29.2706 29.4865 29.1778 29.4254C28.979 29.255 28.9791 29.5319 28.7803 29.7519C28.5815 29.972 28.5673 30.2418 28.3614 30.2276C28.1555 30.2134 27.8076 30.682 27.8076 30.682C27.7939 30.5872 27.8021 30.4905 27.8316 30.3994C27.8612 30.3083 27.9112 30.2253 27.978 30.1566C28.2123 29.8868 27.8289 29.5035 27.8644 29.1982C27.9157 29.0423 28.0195 28.909 28.158 28.821C28.2965 28.733 28.4612 28.6957 28.6241 28.7154C28.8868 28.8006 28.8726 29.0349 28.9578 28.9142C29.0429 28.7935 29.2062 28.6089 29.2701 28.6941C29.334 28.7793 29.6748 28.5024 29.7884 28.3817C29.902 28.261 29.9375 28.6373 29.9375 28.6373C29.9375 28.6373 29.9375 28.9284 29.831 29.0278C29.7245 29.1272 29.3908 29.113 29.334 29.113C29.4023 29.3459 29.4927 29.5717 29.6038 29.7874C29.7406 29.7854 29.8757 29.7564 30.0014 29.7022C30.0866 29.6383 30.1718 29.2976 30.1718 29.2976H30.5055C30.5055 29.2976 30.4061 28.7154 30.4061 28.6728V28.1119C30.4061 28.0054 30.2073 27.9841 30.0724 27.9841C29.9375 27.9841 30.0724 27.686 30.0724 27.686C29.9583 27.7208 29.8468 27.7635 29.7387 27.8138C29.5541 27.899 29.7387 28.1403 29.6251 28.2539C29.5115 28.3675 29.3553 28.2184 29.2914 28.2184C29.2275 28.2184 29.3837 27.7641 29.3837 27.7641L28.972 27.9841C28.9352 27.863 28.8722 27.7515 28.7874 27.6576C28.6525 27.5156 28.7874 27.2671 28.7874 27.2671L28.9223 27.4233L29.2843 27.3523C29.3925 27.1964 29.474 27.0237 29.5257 26.8411C29.5257 26.7062 28.9365 26.9476 28.9365 26.9476C29.0134 26.8049 29.0821 26.658 29.1423 26.5074C29.1958 26.3652 29.2339 26.2176 29.2559 26.0673C29.6187 25.7602 30.0139 25.4936 30.4345 25.2721C30.7563 25.1141 31.0568 24.9161 31.329 24.6829C29.5374 25.1506 27.912 26.1096 26.6362 27.4517C26.5451 27.9793 26.4976 28.5136 26.4942 29.0491C26.4897 30.3532 26.7306 31.6465 27.2042 32.8615Z" fill="#B9DB28"/>
</g>
<mask id="mask8_1184_9451" style="mask-type:luminance" maskUnits="userSpaceOnUse" x="34" y="24" width="10" height="16">
<path d="M43.903 24.2925H34.1553V39.6701H43.903V24.2925Z" fill="white"/>
</mask>
<g mask="url(#mask8_1184_9451)">
<path d="M41.972 31.4203C41.8158 31.4203 41.7164 31.0937 41.404 30.7742C41.2966 30.6945 41.2169 30.5832 41.1762 30.4558C41.1354 30.3284 41.1357 30.1915 41.1768 30.0643C41.3244 30.2315 41.4859 30.3859 41.6596 30.5257C41.9152 30.7174 42.0075 30.7529 42.0714 31.0795C42.1353 31.4061 42.114 31.3919 41.972 31.4203ZM43.0653 32.5065C43.0653 32.5065 42.9517 32.9183 42.8807 32.8757C42.8097 32.8331 42.4761 32.6769 42.4974 32.5917C42.5187 32.5065 42.4477 32.2509 42.5826 32.3929C42.7174 32.5349 42.8168 32.6627 42.8665 32.542C42.9692 32.3649 43.0367 32.1696 43.0653 31.9669C43.0653 31.7469 43.0653 31.6972 43.1505 31.6972C43.2357 31.6972 43.2357 31.5481 43.2854 31.399C42.7552 29.721 41.7945 28.2114 40.499 27.0205C39.2035 25.8296 37.6184 24.9991 35.9019 24.6118C36.1478 24.7689 36.3848 24.9396 36.6118 25.123C36.7254 25.2508 36.4485 25.2508 36.5124 25.336C36.5763 25.4212 36.8106 25.3857 37.0591 25.5774C37.3076 25.769 37.0591 25.8613 37.407 26.0175C37.7548 26.1737 37.9039 26.0814 38.0601 26.2518C38.1044 26.3059 38.1373 26.3683 38.1568 26.4354C38.1763 26.5025 38.1821 26.5729 38.1737 26.6423C38.3202 26.721 38.4603 26.8112 38.5926 26.9121C38.6778 26.9973 38.2518 26.8411 38.4577 27.2528C38.6636 27.6646 38.5926 27.8705 38.5074 27.9628C38.4222 28.0551 38.4719 28.1616 38.5074 28.3036C38.5635 28.4449 38.5635 28.6024 38.5074 28.7437C38.4577 28.8076 38.2092 28.8289 38.2092 28.8289C38.1765 28.7009 38.1551 28.5703 38.1453 28.4385C38.1453 28.3036 38.0956 28.1616 37.8968 28.3036C37.7315 28.4189 37.5284 28.4671 37.3289 28.4385C37.1159 28.4385 37.0094 28.2184 36.981 28.5876C37.0173 28.9222 36.9835 29.2607 36.8816 29.5815C36.7112 29.9436 36.6402 30.1282 36.5834 30.2276C36.5266 30.3269 36.5834 30.6393 36.8958 30.6677C37.2082 30.6961 37.2366 30.4973 37.4567 30.618C37.6768 30.7387 37.6839 31.0085 37.8329 30.9943C37.982 30.9801 38.053 30.7884 38.0317 30.5683C38.0104 30.3482 37.7548 30.1424 37.6981 29.972C37.6468 29.7958 37.6468 29.6086 37.6981 29.4324C37.7477 29.191 37.8471 29.1271 37.911 29.3188C37.9749 29.5105 37.7335 29.7945 37.9962 29.8371C38.2589 29.8797 38.4506 29.8939 38.479 30.1282C38.5074 30.3624 38.337 30.5683 38.3796 30.689C38.4222 30.8097 38.2305 31.1292 38.1666 31.1647C38.1027 31.2002 37.1443 31.4487 37.1159 31.6191C37.0652 31.828 37.0035 32.0342 36.9313 32.2367C36.9313 32.2367 36.8816 32.3219 36.5976 32.471C36.3136 32.6201 36.7041 32.8402 36.768 33.0177C36.8319 33.1952 36.6544 33.4223 36.3562 33.4507C36.0581 33.4791 35.7599 33.756 35.8522 34.0116C35.9445 34.2672 35.8025 34.5725 36.0935 34.6293C36.2826 34.6685 36.4788 34.6562 36.6615 34.5938C36.8958 34.5441 37.1301 34.5938 37.194 34.253C37.2579 33.9122 37.0591 33.898 37.2792 33.7418C37.4993 33.5856 37.4638 33.5288 37.4922 33.3372C37.5206 33.1455 37.6058 33.1384 37.84 33.0674C38.0743 32.9964 38.053 32.7266 38.1737 32.8828C38.2944 33.039 38.6778 33.0816 38.8837 33.1526L39.1251 33.2236C39.1251 33.2236 39.2387 33.5714 39.26 33.5288C39.2813 33.4862 39.2742 33.1313 39.2742 33.1313L38.9121 32.9964C38.7421 32.9159 38.5882 32.8052 38.4577 32.6698C38.4577 32.6201 38.7772 32.6059 39.0257 32.6698C39.1939 32.7133 39.3419 32.8136 39.4445 32.9538C39.4445 32.9538 39.5439 33.1384 39.6575 33.1739C39.7711 33.2094 39.9131 33.5288 39.9131 33.5288C39.9131 33.5288 40.1474 33.5998 40.1616 33.4933C40.1758 33.3868 39.977 33.1384 39.9273 32.9751C39.8776 32.8118 40.2752 32.6272 40.2468 32.4639C40.2184 32.3006 40.0835 31.903 40.0622 31.754C40.0409 31.6049 40.1971 31.4487 40.3462 31.5126C40.4953 31.5765 40.5095 31.1576 40.4882 31.0085C40.4669 30.8594 40.687 31.2783 40.7296 31.328C40.7722 31.3777 41.3117 31.2428 41.1413 31.5481C40.971 31.8533 40.3888 32.329 40.3746 32.5207C40.3604 32.7124 40.3746 32.9751 40.5592 33.0816C40.7438 33.1881 40.6728 32.9609 40.9568 32.826C41.2407 32.6911 41.2549 32.7053 41.3259 32.9609C41.3969 33.2165 41.5247 33.5359 41.3756 33.6708C41.2265 33.8057 40.9497 34.111 40.6657 34.111C40.3817 34.111 40.048 34.2104 40.048 34.3098C40.048 34.4092 40.3675 34.6648 39.9983 34.6648C39.6291 34.6648 39.2884 34.5299 39.1677 34.6648C39.047 34.7997 38.8837 34.6648 38.7843 34.4589C38.6849 34.253 38.621 34.111 38.3157 34.2388C38.0104 34.3666 37.4496 34.5654 37.2153 34.679C36.981 34.7926 36.9455 34.97 36.7822 34.8849C36.7562 34.8697 36.7274 34.8599 36.6975 34.856C36.6676 34.852 36.6372 34.8541 36.6082 34.862C36.5791 34.87 36.5519 34.8836 36.5282 34.9021C36.5044 34.9207 36.4846 34.9438 36.4698 34.97C36.3484 35.1607 36.2028 35.3349 36.0368 35.4883C35.9516 35.5238 36.0368 35.7297 35.8309 35.964C35.625 36.1983 35.0854 36.6313 34.9647 36.9721C34.9015 37.3449 34.8848 37.7241 34.915 38.1009C34.915 38.2713 34.9647 38.5127 34.9647 38.6476C34.9647 38.7825 34.844 38.8819 35.128 38.9316C35.1928 38.9391 35.2553 38.96 35.3115 38.993C35.3678 39.026 35.4165 39.0704 35.4546 39.1233C35.7942 39.1579 36.1355 39.1745 36.4769 39.173C39.0379 39.1724 41.4979 38.1742 43.3351 36.39C43.3351 36.39 43.3351 36.3261 43.3351 36.2906C43.3351 35.8149 43.3706 34.7571 43.2854 35.0339C43.2002 35.3108 42.9517 35.9285 42.8452 35.7084C42.7387 35.4883 43.0085 35.4528 42.8452 35.3676C42.6819 35.2824 42.4122 34.6577 42.1353 34.6009C41.8584 34.5441 41.5957 34.4021 41.5957 34.2601C41.588 34.1397 41.5666 34.0206 41.5318 33.9051L41.4821 33.6708C41.6281 33.7391 41.7623 33.8302 41.8797 33.9406C42.0288 34.0968 42.0643 34.2956 42.1992 34.3595C42.3341 34.4234 42.3341 34.5228 42.4761 34.6719C42.6181 34.821 42.76 35.3818 42.8452 35.1475C42.9304 34.9133 43.0085 35.0623 43.0795 34.6435C43.1505 34.2246 43.3422 33.9335 43.3564 33.6708C43.3706 33.4081 43.1221 32.9964 43.1221 32.7905C43.1277 32.6857 43.1083 32.581 43.0653 32.4852" fill="#B9DB28"/>
</g>
<path d="M39.1324 33.6279L38.8271 33.7628L39.0969 33.8693L39.1324 33.6279Z" fill="#B9DB28"/>
<path d="M35.377 32.1163C35.377 32.2015 35.5757 32.3577 35.5757 32.3577C35.6446 32.2556 35.7017 32.146 35.7461 32.0311C35.7461 31.9459 35.7958 31.7968 35.7958 31.7968L35.4834 31.6335C35.439 31.7924 35.4034 31.9535 35.377 32.1163Z" fill="#B9DB28"/>
<path d="M34.3057 30.604C34.398 30.604 34.6394 30.2845 34.6394 30.2845C34.6394 30.2845 34.54 30.0645 34.3909 30.0645C34.2418 30.0645 34.0075 30.2845 33.9578 30.2845C33.9081 30.2845 34.1992 30.6324 34.3057 30.604Z" fill="#B9DB28"/>
<path d="M38.4309 33.7703L38.4806 33.6141L38.1611 33.394C38.1611 33.5289 38.4309 33.7703 38.4309 33.7703Z" fill="#B9DB28"/>
<path d="M30.4438 27.4019L30.174 27.0825C30.0604 27.2529 29.8971 27.3381 30.0746 27.4516C30.1859 27.5261 30.2686 27.6363 30.3089 27.764H30.5077L30.5574 27.5439C30.6612 27.5814 30.7681 27.6099 30.8768 27.6291C31.0329 27.5802 31.1962 27.5586 31.3596 27.5652C31.4627 27.5712 31.5657 27.5508 31.6588 27.5061C31.7519 27.4614 31.8322 27.3938 31.8921 27.3097C31.8921 27.3097 31.7572 27.0683 31.5442 27.1038C31.4842 27.1141 31.4225 27.1044 31.3687 27.0762C31.3148 27.048 31.2717 27.0028 31.246 26.9476C31.212 26.8889 31.159 26.8435 31.0958 26.819C31.0325 26.7945 30.9628 26.7922 30.8981 26.8127C30.6852 26.8979 30.5006 27.1038 30.671 27.1251C30.8034 27.132 30.9361 27.132 31.0685 27.1251C30.9994 27.1959 30.9259 27.2623 30.8484 27.3239C30.7145 27.346 30.5794 27.3603 30.4438 27.3665" fill="#B9DB28"/>
<path d="M31.3586 30.6819C31.6 30.7316 31.8982 30.902 31.9266 30.7671C31.955 30.6322 32.1112 30.0571 32.3313 30.0571C32.5514 30.0571 32.736 29.7163 33.0412 29.7163C33.3465 29.7163 33.5595 29.9222 33.6944 29.7163C33.8293 29.5105 33.808 29.0703 33.9074 28.9354C34.0068 28.8005 34.1843 28.5946 34.1843 28.4952C34.1843 28.3958 33.9571 28.2609 34.021 28.1544C34.0849 28.048 34.2908 27.8137 34.2908 27.8137C34.2908 27.8137 33.6376 28.0054 33.5382 27.8137C33.4388 27.622 33.808 27.5581 33.0412 27.5936C32.2745 27.6291 31.1883 27.7924 31.1883 27.7924L31.0889 28.1118C31.0889 28.1118 31.5006 28.2183 31.5574 28.4029C31.6142 28.5875 31.7704 28.9425 31.5574 29.0774C31.4657 29.1362 31.3869 29.2132 31.3258 29.3035C31.2648 29.3938 31.2228 29.4957 31.2025 29.6028C31.2025 29.7731 31.1173 30.1068 31.1386 30.1707C31.1599 30.2346 31.0889 30.6322 31.3161 30.6819" fill="#B9DB28"/>
<path d="M33.0419 29.7093C33.3614 29.7093 33.5601 29.9152 33.695 29.7093C33.8299 29.5034 33.8086 29.0632 33.908 28.9283C34.0074 28.7934 34.192 28.5875 34.192 28.4881C34.192 28.3887 33.9577 28.2539 34.0216 28.1474C34.0855 28.0409 34.2914 27.8066 34.2914 27.8066C34.2914 27.8066 33.6382 27.9983 33.5814 27.8066C33.5246 27.6149 33.8441 27.551 33.0774 27.5865C32.5804 27.5865 31.9556 27.6859 31.5723 27.7427C31.8269 28.5079 32.2271 29.2167 32.7508 29.83C32.8421 29.7517 32.9572 29.7067 33.0774 29.7022" fill="#C9E523"/>
<path d="M36.7117 31.8318C36.5432 31.7139 36.4047 31.5583 36.307 31.3774C36.2538 31.2902 36.1836 31.2145 36.1007 31.1547C36.0178 31.095 35.9238 31.0524 35.8242 31.0295C35.8242 31.0295 35.8242 31.207 35.9307 31.2496C35.9952 31.3253 36.0431 31.4138 36.0712 31.5092C36.0993 31.6046 36.1071 31.7048 36.094 31.8034C36.0898 31.8316 36.0898 31.8603 36.094 31.8886C36.3284 31.9392 36.5654 31.9771 36.804 32.0022C36.8121 31.972 36.8118 31.9401 36.8031 31.91C36.7943 31.8799 36.7774 31.8529 36.7543 31.8318" fill="#C9E523"/>
<path d="M31.8909 27.3169C31.8909 27.3169 31.756 27.0826 31.543 27.111C31.4832 27.1316 31.4182 27.1316 31.3584 27.111C31.3584 27.2743 31.4294 27.4305 31.4791 27.5867C31.5608 27.5774 31.6396 27.5511 31.7105 27.5096C31.7814 27.468 31.8429 27.412 31.8909 27.3453" fill="#C9E523"/>
<mask id="mask9_1184_9451" style="mask-type:luminance" maskUnits="userSpaceOnUse" x="35" y="24" width="9" height="9">
<path d="M43.0948 24.2925H35.7822V32.3576H43.0948V24.2925Z" fill="white"/>
</mask>
<g mask="url(#mask9_1184_9451)">
<path d="M35.9023 24.6116C36.1483 24.7687 36.3853 24.9393 36.6123 25.1227C36.7259 25.2505 36.449 25.2505 36.5129 25.3357C36.5768 25.4209 36.8111 25.3854 37.0596 25.5771C37.3081 25.7688 37.0596 25.8611 37.4075 26.0173C37.7553 26.1735 37.9044 26.0812 38.0606 26.2516C38.1049 26.3056 38.1378 26.3681 38.1573 26.4352C38.1768 26.5023 38.1826 26.5727 38.1742 26.642C38.3207 26.7208 38.4608 26.811 38.5931 26.9118C38.6783 26.997 38.2523 26.8408 38.4582 27.2526C38.6641 27.6644 38.5931 27.8703 38.5079 27.9626C38.4227 28.0549 38.4724 28.1613 38.5079 28.3033C38.564 28.4447 38.564 28.6021 38.5079 28.7435C38.4582 28.8074 38.2097 28.8287 38.2097 28.8287C38.177 28.7007 38.1556 28.57 38.1458 28.4382C38.1458 28.3033 38.0961 28.1613 37.8973 28.3033C37.732 28.4187 37.5289 28.4669 37.3294 28.4382C37.1164 28.4382 37.0099 28.2181 36.9815 28.5873C37.0178 28.9219 36.984 29.2605 36.8821 29.5813C36.7117 29.9433 36.6407 30.1279 36.5839 30.2273C36.5271 30.3267 36.5839 30.6391 36.8963 30.6675C37.2087 30.6959 37.2371 30.4971 37.4571 30.6178C37.6772 30.7385 37.6843 31.0083 37.8334 30.9941C37.9825 30.9799 38.0535 30.7882 38.0322 30.5681C38.0109 30.348 37.7553 30.1421 37.6985 29.9717C37.6473 29.7955 37.6473 29.6084 37.6985 29.4322C37.7482 29.1908 37.8476 29.1269 37.9115 29.3186C37.9754 29.5103 37.734 29.7942 37.9967 29.8368C38.2594 29.8794 38.4511 29.8936 38.4795 30.1279C38.5079 30.3622 38.3375 30.5681 38.3801 30.6888C38.4227 30.8095 38.231 31.129 38.1671 31.1644C38.1032 31.1999 37.1448 31.4484 37.1164 31.6188C37.088 31.7892 37.0454 31.8744 37.0028 32.0093H37.4429C38.5315 32.0076 39.5999 31.716 40.5384 31.1644C40.5496 31.0963 40.5496 31.0267 40.5384 30.9586C40.5384 30.8663 40.6023 30.9586 40.6662 31.0935C40.8951 30.9536 41.1134 30.797 41.3193 30.6249C41.2536 30.5477 41.2082 30.4553 41.1871 30.3562C41.1661 30.257 41.17 30.1542 41.1986 30.0569C41.313 30.1838 41.4338 30.3047 41.5607 30.419C41.8915 30.1207 42.189 29.7874 42.4481 29.4251C41.7549 28.2092 40.814 27.1524 39.6864 26.3233C38.5588 25.4941 37.2696 24.9109 35.9023 24.6116Z" fill="#C9E523"/>
</g>
<path d="M35.7958 31.8037L35.4834 31.6404C35.487 31.6639 35.487 31.6878 35.4834 31.7114L35.81 31.8037" fill="#C9E523"/>
<path d="M35.7256 27.6861C35.7256 27.8778 35.7256 27.9772 35.9244 28.0269C36.1232 28.0766 36.1729 28.0269 36.1729 27.9133C36.1818 27.7971 36.2056 27.6826 36.2439 27.5725H35.9741L35.7256 27.6577" fill="#C9E523"/>
<path d="M33.9639 30.2914C33.9639 30.2914 34.2124 30.6322 34.3117 30.6109C34.4111 30.5896 34.6454 30.2914 34.6454 30.2914C34.6454 30.2914 34.546 30.0713 34.3969 30.0713C34.2479 30.0713 34.0136 30.2914 33.9639 30.2914Z" fill="#C9E523"/>
</svg>
